<?xml version="1.0" encoding="UTF-8"?>
<!-- Generator: Adobe Illustrator 24.3.0, SVG Export Plug-In . SVG Version: 6.00 Build 0)  -->
<svg xmlns="http://www.w3.org/2000/svg" xmlns:xlink="http://www.w3.org/1999/xlink" version="1.1" id="Capa_1" x="0px" y="0px" viewBox="0 0 512 512" style="enable-background:new 0 0 512 512;" xml:space="preserve" width="512" height="512">
<g>
	<path style="fill:#0095FF;" d="M3.705,307.795C20.528,259.521,116.297,239.177,256,256l27.063-99.474   c-138.24-17.554-239.177,2.194-256,65.097l-2.762,10.19l-2.253,33.989L3.705,307.795z"/>
	<path style="fill:#0000CD;" d="M508.259,204.306C491.437,252.58,395.703,272.823,256,256l-27.063,99.474   c138.24,17.554,239.177-2.194,256-65.097l1.77-6.533l1.263-31.742L508.259,204.306z"/>
	<path style="fill:#0095FF;" d="M92.16,99.474c204.069,14.629,412.526,115.566,392.777,190.903l18.286-67.291   c5.851-21.211,8.777-32.183,8.777-40.96C512,105.326,310.857,11.703,119.223,0L92.16,99.474z"/>
	<path style="fill:#0000CD;" d="M419.84,412.526C215.771,397.897,7.314,296.96,27.063,221.623L8.777,288.914   C2.926,310.126,0,321.097,0,329.874C0,406.674,201.143,500.297,392.777,512L419.84,412.526z"/>
</g>















</svg>
