<svg xmlns="http://www.w3.org/2000/svg" xmlns:xlink="http://www.w3.org/1999/xlink" width="500" zoomAndPan="magnify" viewBox="0 0 375 374.999991" height="500" preserveAspectRatio="xMidYMid meet" version="1.0"><defs><g/></defs><g fill="#000000" fill-opacity="1"><g transform="translate(155.397036, 198.574781)"><g><path d="M 6.089844 0.320312 C 7.46875 0.320312 8.710938 -0.0351562 9.664062 -1.027344 L 9.914062 -1.238281 L 10.054688 -0.957031 C 10.480469 -0.175781 11.257812 0.175781 12.144531 0.175781 C 13.382812 0.175781 14.480469 -0.175781 15.222656 -1.097656 L 14.941406 -1.453125 C 14.726562 -1.308594 14.480469 -1.203125 14.195312 -1.203125 C 13.738281 -1.203125 13.523438 -1.523438 13.453125 -1.804688 C 13.382812 -1.945312 13.382812 -2.125 13.382812 -2.265625 C 13.382812 -2.40625 13.382812 -2.515625 13.382812 -2.65625 L 13.382812 -11.613281 C 13.382812 -15.152344 11.082031 -16.675781 7.648438 -16.675781 C 4.851562 -16.675781 1.488281 -15.613281 1.488281 -12.460938 C 1.488281 -11.71875 2.441406 -11.363281 3.257812 -11.363281 C 4.105469 -11.363281 5.132812 -11.753906 5.132812 -12.496094 C 5.132812 -13.949219 5.453125 -16.144531 7.578125 -16.144531 C 8.710938 -16.144531 9.242188 -15.472656 9.488281 -14.621094 C 9.734375 -13.984375 9.734375 -12.851562 9.734375 -12.144531 L 9.734375 -9.558594 L 9.382812 -9.699219 C 8.636719 -10.019531 7.789062 -10.125 6.9375 -10.125 C 3.433594 -10.125 0.601562 -8.144531 0.601562 -4.460938 C 0.601562 -1.308594 3.117188 0.320312 6.089844 0.320312 Z M 4.425781 -4.320312 C 4.425781 -6.796875 5.488281 -9.3125 8.425781 -9.3125 C 8.816406 -9.3125 9.203125 -9.277344 9.558594 -9.132812 L 9.734375 -9.0625 L 9.734375 -2.550781 C 9.734375 -1.238281 8.214844 -0.390625 7.152344 -0.390625 C 4.886719 -0.390625 4.425781 -2.691406 4.425781 -4.320312 Z M 4.425781 -4.320312 "/></g></g></g><g fill="#000000" fill-opacity="1"><g transform="translate(174.725033, 198.574781)"><g><path d="M 0.742188 -1.769531 C 2.300781 -0.210938 4.707031 0.355469 6.867188 0.355469 C 9.167969 0.355469 11.71875 -0.320312 12.886719 -2.335938 C 13.242188 -2.902344 13.453125 -3.609375 13.453125 -4.25 C 13.453125 -6.65625 11.398438 -7.859375 9.132812 -9.097656 C 8.566406 -9.417969 8 -9.699219 7.46875 -10.019531 C 6.054688 -10.867188 4.53125 -12.039062 4.53125 -13.878906 C 4.53125 -15.257812 5.558594 -16.144531 6.867188 -16.144531 C 9.203125 -16.144531 11.398438 -13.453125 12.25 -11.542969 L 12.746094 -11.542969 L 12.746094 -14.160156 C 12.675781 -14.230469 12.25 -14.726562 12.25 -14.726562 C 10.90625 -16.039062 9.027344 -16.675781 7.152344 -16.675781 C 4.070312 -16.675781 0.957031 -15.4375 0.957031 -12.039062 C 0.957031 -9.488281 3.117188 -7.964844 5.417969 -6.65625 C 5.984375 -6.300781 6.550781 -6.019531 7.082031 -5.699219 C 8.320312 -4.992188 10.125 -3.964844 10.125 -2.371094 C 10.125 -0.777344 8.355469 -0.175781 7.222656 -0.175781 C 4.851562 -0.175781 1.699219 -2.761719 1.523438 -5.3125 L 1.167969 -5.3125 L 0.636719 -1.945312 C 0.671875 -1.875 0.707031 -1.839844 0.742188 -1.769531 Z M 0.742188 -1.769531 "/></g></g></g><g fill="#000000" fill-opacity="1"><g transform="translate(192.318525, 198.574781)"><g><path d="M 0.742188 -1.769531 C 2.300781 -0.210938 4.707031 0.355469 6.867188 0.355469 C 9.167969 0.355469 11.71875 -0.320312 12.886719 -2.335938 C 13.242188 -2.902344 13.453125 -3.609375 13.453125 -4.25 C 13.453125 -6.65625 11.398438 -7.859375 9.132812 -9.097656 C 8.566406 -9.417969 8 -9.699219 7.46875 -10.019531 C 6.054688 -10.867188 4.53125 -12.039062 4.53125 -13.878906 C 4.53125 -15.257812 5.558594 -16.144531 6.867188 -16.144531 C 9.203125 -16.144531 11.398438 -13.453125 12.25 -11.542969 L 12.746094 -11.542969 L 12.746094 -14.160156 C 12.675781 -14.230469 12.25 -14.726562 12.25 -14.726562 C 10.90625 -16.039062 9.027344 -16.675781 7.152344 -16.675781 C 4.070312 -16.675781 0.957031 -15.4375 0.957031 -12.039062 C 0.957031 -9.488281 3.117188 -7.964844 5.417969 -6.65625 C 5.984375 -6.300781 6.550781 -6.019531 7.082031 -5.699219 C 8.320312 -4.992188 10.125 -3.964844 10.125 -2.371094 C 10.125 -0.777344 8.355469 -0.175781 7.222656 -0.175781 C 4.851562 -0.175781 1.699219 -2.761719 1.523438 -5.3125 L 1.167969 -5.3125 L 0.636719 -1.945312 C 0.671875 -1.875 0.707031 -1.839844 0.742188 -1.769531 Z M 0.742188 -1.769531 "/></g></g></g><g fill="#000000" fill-opacity="1"><g transform="translate(209.912018, 198.574781)"><g><path d="M 6.089844 0.320312 C 7.46875 0.320312 8.710938 -0.0351562 9.664062 -1.027344 L 9.914062 -1.238281 L 10.054688 -0.957031 C 10.480469 -0.175781 11.257812 0.175781 12.144531 0.175781 C 13.382812 0.175781 14.480469 -0.175781 15.222656 -1.097656 L 14.941406 -1.453125 C 14.726562 -1.308594 14.480469 -1.203125 14.195312 -1.203125 C 13.738281 -1.203125 13.523438 -1.523438 13.453125 -1.804688 C 13.382812 -1.945312 13.382812 -2.125 13.382812 -2.265625 C 13.382812 -2.40625 13.382812 -2.515625 13.382812 -2.65625 L 13.382812 -11.613281 C 13.382812 -15.152344 11.082031 -16.675781 7.648438 -16.675781 C 4.851562 -16.675781 1.488281 -15.613281 1.488281 -12.460938 C 1.488281 -11.71875 2.441406 -11.363281 3.257812 -11.363281 C 4.105469 -11.363281 5.132812 -11.753906 5.132812 -12.496094 C 5.132812 -13.949219 5.453125 -16.144531 7.578125 -16.144531 C 8.710938 -16.144531 9.242188 -15.472656 9.488281 -14.621094 C 9.734375 -13.984375 9.734375 -12.851562 9.734375 -12.144531 L 9.734375 -9.558594 L 9.382812 -9.699219 C 8.636719 -10.019531 7.789062 -10.125 6.9375 -10.125 C 3.433594 -10.125 0.601562 -8.144531 0.601562 -4.460938 C 0.601562 -1.308594 3.117188 0.320312 6.089844 0.320312 Z M 4.425781 -4.320312 C 4.425781 -6.796875 5.488281 -9.3125 8.425781 -9.3125 C 8.816406 -9.3125 9.203125 -9.277344 9.558594 -9.132812 L 9.734375 -9.0625 L 9.734375 -2.550781 C 9.734375 -1.238281 8.214844 -0.390625 7.152344 -0.390625 C 4.886719 -0.390625 4.425781 -2.691406 4.425781 -4.320312 Z M 4.425781 -4.320312 "/></g></g></g><g fill="#000000" fill-opacity="1"><g transform="translate(229.240014, 198.574781)"><g><path d="M 0.285156 -14.550781 L 0.285156 -13.914062 C 1.488281 -13.84375 1.984375 -13.242188 1.984375 -11.964844 L 1.984375 -2.515625 C 1.984375 -1.238281 1.488281 -0.636719 0.285156 -0.601562 L 0.285156 0 L 7.292969 0 L 7.292969 -0.601562 C 6.125 -0.636719 5.628906 -1.238281 5.628906 -2.515625 L 5.628906 -11.964844 C 5.628906 -13.664062 7.257812 -15.789062 9.097656 -15.789062 C 11.257812 -15.789062 12.214844 -13.773438 12.214844 -11.964844 L 12.214844 -2.515625 C 12.214844 -1.238281 11.71875 -0.636719 10.515625 -0.601562 L 10.515625 0 L 17.523438 0 L 17.523438 -0.601562 C 16.320312 -0.636719 15.859375 -1.238281 15.859375 -2.515625 L 15.859375 -12.039062 C 15.859375 -15.222656 13.703125 -16.675781 10.65625 -16.675781 C 8.886719 -16.675781 7.117188 -16.214844 6.054688 -14.726562 L 5.628906 -14.089844 L 5.628906 -16.25 Z M 0.285156 -14.550781 "/></g></g></g><g fill="#000000" fill-opacity="1"><g transform="translate(250.585684, 198.574781)"><g><path d="M 0.390625 -14.550781 L 0.390625 -13.914062 C 1.59375 -13.84375 2.089844 -13.242188 2.089844 -11.964844 L 2.089844 -2.515625 C 2.089844 -1.238281 1.59375 -0.636719 0.390625 -0.601562 L 0.390625 0 L 7.398438 0 L 7.398438 -0.601562 C 6.230469 -0.636719 5.734375 -1.238281 5.734375 -2.515625 L 5.734375 -16.25 Z M 0.886719 -20.535156 C 0.886719 -19.1875 1.984375 -18.054688 3.292969 -18.054688 C 4.566406 -18.054688 5.734375 -19.222656 5.734375 -20.535156 C 5.734375 -21.84375 4.601562 -22.941406 3.292969 -22.941406 C 1.984375 -22.941406 0.886719 -21.84375 0.886719 -20.535156 Z M 0.886719 -20.535156 "/></g></g></g><g fill="#000000" fill-opacity="1"><g transform="translate(191.758226, 210.183156)"><g><path d="M 0.148438 -2.796875 L 0.96875 -2.796875 L 0.96875 0 L 1.492188 0 L 1.492188 -2.796875 L 2.304688 -2.796875 L 2.304688 -3.28125 L 1.492188 -3.28125 L 1.492188 -4.554688 L 0.96875 -4.554688 L 0.96875 -3.28125 L 0.148438 -3.28125 Z M 0.148438 -2.796875 "/></g></g></g><g fill="#000000" fill-opacity="1"><g transform="translate(194.209614, 210.183156)"><g><path d="M 2.242188 -2.601562 L 2.242188 -3.28125 C 2.140625 -3.324219 2.027344 -3.347656 1.914062 -3.347656 C 1.542969 -3.347656 1.273438 -3.136719 1.101562 -2.734375 L 1.082031 -2.601562 L 1.082031 -3.28125 L 0.558594 -3.28125 L 0.558594 0 L 1.082031 0 L 1.082031 -1.640625 C 1.082031 -1.910156 1.140625 -2.148438 1.265625 -2.363281 C 1.328125 -2.476562 1.410156 -2.570312 1.507812 -2.648438 C 1.601562 -2.722656 1.722656 -2.765625 1.855469 -2.765625 C 1.992188 -2.765625 2.117188 -2.707031 2.242188 -2.601562 Z M 2.242188 -2.601562 "/></g></g></g><g fill="#000000" fill-opacity="1"><g transform="translate(196.526879, 210.183156)"><g><path d="M 3.765625 -1.714844 C 3.765625 -2.160156 3.585938 -2.550781 3.242188 -2.886719 C 2.90625 -3.207031 2.503906 -3.371094 2.050781 -3.371094 C 1.574219 -3.371094 1.171875 -3.199219 0.835938 -2.863281 C 0.5 -2.527344 0.335938 -2.125 0.335938 -1.65625 C 0.335938 -1.179688 0.5 -0.773438 0.835938 -0.449219 C 0.992188 -0.289062 1.171875 -0.171875 1.378906 -0.0820312 C 1.589844 0.0078125 1.832031 0.0507812 2.125 0.0507812 C 2.414062 0.0507812 2.699219 -0.0390625 2.980469 -0.214844 C 3.265625 -0.394531 3.472656 -0.648438 3.617188 -0.960938 L 3.019531 -0.960938 C 2.898438 -0.804688 2.757812 -0.6875 2.585938 -0.597656 C 2.414062 -0.507812 2.238281 -0.46875 2.050781 -0.46875 C 1.765625 -0.46875 1.511719 -0.558594 1.289062 -0.746094 C 1.066406 -0.925781 0.925781 -1.15625 0.878906 -1.4375 L 3.765625 -1.4375 Z M 3.214844 -1.886719 L 0.886719 -1.886719 C 0.917969 -2.019531 0.96875 -2.148438 1.042969 -2.265625 C 1.28125 -2.652344 1.617188 -2.847656 2.050781 -2.847656 C 2.324219 -2.847656 2.570312 -2.757812 2.789062 -2.578125 C 3.011719 -2.394531 3.144531 -2.160156 3.214844 -1.886719 Z M 3.214844 -1.886719 "/></g></g></g><g fill="#000000" fill-opacity="1"><g transform="translate(200.587688, 210.183156)"><g><path d="M 1.082031 0 L 1.082031 -5.589844 L 0.558594 -5.589844 L 0.558594 0 Z M 1.082031 0 "/></g></g></g><g fill="#000000" fill-opacity="1"><g transform="translate(202.226916, 210.183156)"><g><path d="M 1.082031 0 L 1.082031 -5.589844 L 0.558594 -5.589844 L 0.558594 0 Z M 1.082031 0 "/></g></g></g><g fill="#000000" fill-opacity="1"><g transform="translate(203.866144, 210.183156)"><g><path d="M 3.242188 -1.65625 C 3.242188 -1.328125 3.125 -1.050781 2.890625 -0.820312 C 2.652344 -0.582031 2.378906 -0.46875 2.050781 -0.46875 C 1.722656 -0.46875 1.4375 -0.582031 1.207031 -0.820312 C 0.96875 -1.050781 0.855469 -1.328125 0.855469 -1.65625 C 0.855469 -1.984375 0.96875 -2.257812 1.207031 -2.496094 C 1.4375 -2.730469 1.722656 -2.847656 2.050781 -2.847656 C 2.378906 -2.847656 2.652344 -2.730469 2.890625 -2.496094 C 3.125 -2.257812 3.242188 -1.984375 3.242188 -1.65625 Z M 3.765625 -1.65625 C 3.765625 -2.125 3.59375 -2.527344 3.257812 -2.863281 C 2.921875 -3.199219 2.519531 -3.371094 2.050781 -3.371094 C 1.574219 -3.371094 1.171875 -3.199219 0.835938 -2.863281 C 0.5 -2.527344 0.335938 -2.125 0.335938 -1.65625 C 0.335938 -1.179688 0.5 -0.773438 0.835938 -0.449219 C 1.171875 -0.113281 1.582031 0.0507812 2.050781 0.0507812 C 2.511719 0.0507812 2.921875 -0.113281 3.257812 -0.449219 C 3.59375 -0.773438 3.765625 -1.179688 3.765625 -1.65625 Z M 3.765625 -1.65625 "/></g></g></g><g fill="#000000" fill-opacity="1"><g transform="translate(207.964207, 210.183156)"><g/></g></g><g fill="#000000" fill-opacity="1"><g transform="translate(209.975984, 210.183156)"><g><path d="M 2.824219 0 L 3.347656 0 L 3.347656 -2.050781 C 3.347656 -2.429688 3.242188 -2.734375 3.050781 -2.96875 C 2.945312 -3.085938 2.824219 -3.175781 2.683594 -3.242188 C 2.535156 -3.308594 2.347656 -3.347656 2.117188 -3.347656 C 1.878906 -3.347656 1.675781 -3.28125 1.5 -3.160156 C 1.328125 -3.050781 1.183594 -2.898438 1.082031 -2.714844 L 1.082031 -3.28125 L 0.558594 -3.28125 L 0.558594 0 L 1.082031 0 L 1.082031 -1.371094 C 1.082031 -1.789062 1.15625 -2.117188 1.3125 -2.363281 C 1.402344 -2.496094 1.511719 -2.609375 1.65625 -2.699219 C 1.789062 -2.78125 1.976562 -2.824219 2.199219 -2.824219 C 2.421875 -2.824219 2.578125 -2.742188 2.675781 -2.59375 C 2.773438 -2.445312 2.824219 -2.257812 2.824219 -2.050781 Z M 2.824219 0 "/></g></g></g><g fill="#000000" fill-opacity="1"><g transform="translate(213.768553, 210.183156)"><g><path d="M 3.167969 -1.640625 C 3.167969 -1.320312 3.054688 -1.035156 2.832031 -0.804688 C 2.609375 -0.566406 2.332031 -0.449219 2.011719 -0.449219 C 1.683594 -0.449219 1.410156 -0.566406 1.183594 -0.804688 C 0.960938 -1.035156 0.855469 -1.320312 0.855469 -1.640625 C 0.855469 -1.953125 0.960938 -2.238281 1.183594 -2.476562 C 1.410156 -2.714844 1.683594 -2.832031 2.011719 -2.832031 C 2.332031 -2.832031 2.609375 -2.714844 2.832031 -2.476562 C 3.054688 -2.238281 3.167969 -1.953125 3.167969 -1.640625 Z M 3.691406 1.863281 L 3.691406 -3.28125 L 3.167969 -3.28125 L 3.167969 -2.714844 C 3.136719 -2.757812 3.101562 -2.796875 3.070312 -2.832031 C 2.757812 -3.175781 2.378906 -3.355469 1.929688 -3.355469 C 1.476562 -3.355469 1.097656 -3.175781 0.78125 -2.832031 C 0.484375 -2.488281 0.335938 -2.09375 0.335938 -1.640625 C 0.335938 -1.179688 0.484375 -0.78125 0.78125 -0.449219 C 1.097656 -0.0976562 1.476562 0.0742188 1.929688 0.0742188 C 2.378906 0.0742188 2.757812 -0.0976562 3.070312 -0.449219 C 3.101562 -0.476562 3.136719 -0.515625 3.167969 -0.558594 L 3.167969 1.863281 Z M 3.691406 1.863281 "/></g></g></g><g fill="#000000" fill-opacity="1"><g transform="translate(218.015633, 210.183156)"><g><path d="M 1.082031 0 L 1.082031 -1.371094 C 1.082031 -1.828125 1.15625 -2.167969 1.3125 -2.40625 C 1.402344 -2.542969 1.511719 -2.640625 1.65625 -2.714844 C 1.789062 -2.789062 1.976562 -2.824219 2.199219 -2.824219 C 2.421875 -2.824219 2.578125 -2.742188 2.675781 -2.59375 C 2.773438 -2.445312 2.824219 -2.257812 2.824219 -2.050781 L 2.824219 0 L 3.347656 0 L 3.347656 -2.050781 C 3.347656 -2.429688 3.242188 -2.734375 3.050781 -2.96875 C 2.945312 -3.085938 2.824219 -3.175781 2.683594 -3.242188 C 2.535156 -3.308594 2.347656 -3.347656 2.117188 -3.347656 C 1.878906 -3.347656 1.675781 -3.28125 1.5 -3.160156 C 1.328125 -3.050781 1.183594 -2.898438 1.082031 -2.714844 L 1.082031 -5.589844 L 0.558594 -5.589844 L 0.558594 0 Z M 1.082031 0 "/></g></g></g><g fill="#000000" fill-opacity="1"><g transform="translate(114.054935, 212.215439)"><g><path d="M 48.671875 -35.953125 C 48.347656 -36.285156 47.992188 -36.75 47.609375 -37.34375 C 47.222656 -37.945312 46.851562 -38.566406 46.5 -39.203125 C 46.425781 -39.328125 46.222656 -39.671875 45.890625 -40.234375 C 45.554688 -40.796875 45.25 -41.28125 44.96875 -41.6875 C 44.6875 -42.09375 44.421875 -42.421875 44.171875 -42.671875 C 42.460938 -44.378906 40.566406 -45.65625 38.484375 -46.5 C 36.410156 -47.34375 34.226562 -47.765625 31.9375 -47.765625 C 28.625 -47.765625 25.535156 -46.90625 22.671875 -45.1875 C 19.804688 -43.46875 17.515625 -40.960938 15.796875 -37.671875 C 14.078125 -34.390625 13.21875 -30.492188 13.21875 -25.984375 C 13.21875 -21.367188 14.050781 -17.335938 15.71875 -13.890625 C 17.382812 -10.441406 19.753906 -7.78125 22.828125 -5.90625 C 25.898438 -4.03125 29.472656 -3.09375 33.546875 -3.09375 C 37.015625 -3.09375 40.09375 -3.8125 42.78125 -5.25 C 45.46875 -6.6875 47.546875 -8.804688 49.015625 -11.609375 L 50.890625 -11.34375 L 50.546875 -4.125 C 47.773438 -2.570312 44.570312 -1.328125 40.9375 -0.390625 C 37.3125 0.535156 33.929688 1 30.796875 1 C 25.804688 1 21.296875 -0.03125 17.265625 -2.09375 C 13.242188 -4.164062 10.070312 -7.125 7.75 -10.96875 C 5.4375 -14.8125 4.28125 -19.304688 4.28125 -24.453125 C 4.28125 -29.316406 5.460938 -33.75 7.828125 -37.75 C 10.203125 -41.75 13.566406 -44.90625 17.921875 -47.21875 C 22.273438 -49.539062 27.304688 -50.703125 33.015625 -50.703125 C 38.234375 -50.703125 43.53125 -49.65625 48.90625 -47.5625 L 50.46875 -36.03125 Z M 48.671875 -35.953125 "/></g></g></g></svg>