<svg xmlns="http://www.w3.org/2000/svg" xmlns:xlink="http://www.w3.org/1999/xlink" width="500" zoomAndPan="magnify" viewBox="0 0 375 374.999991" height="500" preserveAspectRatio="xMidYMid meet" version="1.0"><defs><clipPath id="d87f07b331"><path d="M 0 0 L 344.25 0 L 344.25 375 L 0 375 Z M 0 0 " clip-rule="nonzero"/></clipPath><clipPath id="e38c8a8eb6"><path d="M 168 140 L 344.25 140 L 344.25 235 L 168 235 Z M 168 140 " clip-rule="nonzero"/></clipPath><clipPath id="089fdd78a4"><path d="M 286 140 L 344.25 140 L 344.25 329 L 286 329 Z M 286 140 " clip-rule="nonzero"/></clipPath></defs><g clip-path="url(#d87f07b331)"><path fill="#ffffff" d="M 84.957031 187.5 C 84.957031 118.574219 133.117188 71.503906 203.605469 71.503906 C 230.226562 71.503906 253.644531 78.292969 274.5625 92.65625 L 344.503906 55.34375 C 309.378906 19.125 259.183594 0 199.46875 0 C 83.941406 0 0.0273438 78.214844 0.0273438 187.5 C 0.0273438 296.785156 83.941406 375 199.46875 375 C 243.261719 375 281.902344 364.695312 313.203125 345.023438 L 274.484375 282.34375 C 253.566406 296.707031 230.226562 303.496094 203.527344 303.496094 C 133.117188 303.496094 84.957031 256.425781 84.957031 187.5 Z M 84.957031 187.5 " fill-opacity="1" fill-rule="evenodd"/></g><g clip-path="url(#e38c8a8eb6)"><path fill="#00d9d2" d="M 286.117188 234.414062 L 344.503906 140.898438 L 168.402344 234.882812 L 267.851562 234.492188 Z M 286.117188 234.414062 " fill-opacity="1" fill-rule="evenodd"/></g><g clip-path="url(#089fdd78a4)"><path fill="#008c87" d="M 344.503906 140.898438 L 286.117188 234.414062 L 344.503906 328.945312 Z M 344.503906 140.898438 " fill-opacity="1" fill-rule="evenodd"/></g></svg>